<svg xmlns="http://www.w3.org/2000/svg" width="38" height="38" viewBox="0 0 38 38">
    <g fill="none" fill-rule="evenodd">
        <path fill="#8DD35F" d="M2 0h36v38H2a2 2 0 0 1-2-2V2a2 2 0 0 1 2-2z"/>
        <path fill="#FBE1AC" d="M29 0h9v38H14z"/>
        <path fill="#66A3FF" d="M26 22h12v16H20z"/>
        <path fill="#DEAA87" fill-opacity=".605" d="M34 0h4v18H27z"/>
        <path fill="#FBE1AC" d="M12.886 26.32C16.962 18.515 19 13.41 19 11a7 7 0 0 0-14 0c0 2.409 2.038 7.515 6.114 15.32a1 1 0 0 0 1.772 0z"/>
        <circle cx="12" cy="11" r="4" fill="#D35F5F"/>
    </g>
</svg>
