<?xml version="1.0" encoding="iso-8859-1"?>
<!-- Generator: Adobe Illustrator 19.0.0, SVG Export Plug-In . SVG Version: 6.00 Build 0)  -->
<svg version="1.1" id="Capa_1" xmlns="http://www.w3.org/2000/svg" xmlns:xlink="http://www.w3.org/1999/xlink" x="0px" y="0px"
	 viewBox="0 0 56.48 56.48" style="enable-background:new 0 0 56.48 56.48;" xml:space="preserve">
<g>
	<g>
		<path d="M5.937,21.055c-0.017,0.04-0.038,0.08-0.051,0.122c-0.157,0.528-0.036,1.011,0.389,1.428
			c0.371,0.364,0.879,0.244,1.366,0.249c0-0.882,0-1.738,0-2.607C6.67,20.125,6.253,20.328,5.937,21.055z"/>
	</g>
</g>
<g>
	<g>
		<path d="M6.267,29.336c0.001,0.181,0.003,0.344,0.001,0.508c-0.008,1.063-0.006,2.129-0.307,3.168
			c-0.149,0.518-0.396,1.016-0.599,1.521c0.755,0,1.559,0,2.37,0c0-1.753,0-3.479,0-5.197C7.234,29.336,6.758,29.336,6.267,29.336z"
			/>
	</g>
</g>
<g>
	<g>
		<path d="M13.726,29.546c-0.143-0.242-0.354-0.429-0.71-0.445c-0.364-0.018-0.581,0.17-0.744,0.399
			c-0.383,0.539-0.495,1.138-0.555,1.776c0.81,0,1.579,0,2.375,0C14.095,30.671,14.043,30.088,13.726,29.546z"/>
	</g>
</g>
<g>
	<g>
		<path d="M25.547,32.713c-0.162-0.781-0.789-1.094-1.728-0.895c-0.069,0.015-0.165,0.104-0.165,0.159
			c-0.012,0.83-0.008,1.662-0.008,2.505c0.938,0.223,1.716-0.138,1.895-0.896C25.607,33.305,25.605,32.995,25.547,32.713z"/>
	</g>
</g>
<g>
	<g>
		<path d="M55.026,9.939H1.454C0.65,9.939,0,10.59,0,11.393v33.694c0,0.803,0.65,1.455,1.454,1.455h53.572
			c0.804,0,1.454-0.651,1.454-1.454V11.393C56.48,10.59,55.83,9.939,55.026,9.939z M23.046,23.482
			c0.047-0.501,0.193-0.978,0.563-1.39c0.481-0.534,1.363-0.635,2.007-0.212c-0.087,0.11-0.167,0.211-0.245,0.308
			c-0.028,0.004-0.045,0.011-0.06,0.007c-0.78-0.211-1.249-0.022-1.485,0.617c-0.174,0.467-0.211,0.949-0.11,1.428
			c0.192,0.924,0.923,1.244,1.985,0.89c0.098,0.43,0.042,0.483-0.459,0.6c-0.709,0.167-1.4-0.081-1.797-0.609
			C23.065,24.616,22.994,24.057,23.046,23.482z M5.781,20.119c0.327-0.289,0.725-0.439,1.205-0.437c0.34,0.001,0.679,0,1.02,0
			c0.37,0.001,0.371,0,0.371,0.297c0,1.787,0,3.574,0,5.36c0,0.108,0,0.214,0,0.34c-0.24,0-0.461,0-0.716,0c0-0.733,0-1.467,0-2.195
			c-0.422-0.081-0.444-0.073-0.623,0.203c-0.388,0.602-0.785,1.2-1.159,1.807C5.781,25.651,5.672,25.719,5.46,25.7
			c-0.16-0.014-0.324-0.003-0.537-0.003c0.523-0.788,1.022-1.54,1.524-2.294C4.953,23,4.658,21.112,5.781,20.119z M9.747,36.799
			c-0.348,0-0.684,0-1.05,0c0-0.491,0-0.974,0-1.473c-1.315,0-2.602,0-3.915,0c0,0.483,0,0.966,0,1.467c-0.372,0-0.716,0-1.081,0
			c0-0.739,0-1.479,0-2.223c0.026-0.007,0.052-0.025,0.073-0.021c0.4,0.066,0.557-0.118,0.688-0.396
			c0.396-0.847,0.594-1.726,0.667-2.622c0.082-1.009,0.106-2.022,0.156-3.051c1.174,0,2.378,0,3.621,0c0,2.026,0,4.034,0,6.062
			c0.285,0,0.552,0,0.841,0C9.747,35.304,9.747,36.046,9.747,36.799z M10.149,25.692c-0.226,0-0.421,0-0.637,0
			c0-1.297,0-2.591,0-3.908c0.209,0,0.399,0,0.618,0c0,0.526,0,1.047,0,1.584c0.405,0,0.78,0,1.182,0c0-0.526,0-1.047,0-1.579
			c0.224,0,0.419,0,0.633,0c0,1.301,0,2.596,0,3.905c-0.209,0-0.404,0-0.629,0c0-0.585,0-1.162,0-1.752c-0.397,0-0.767,0-1.167,0
			C10.149,24.523,10.149,25.099,10.149,25.692z M11.915,35.271c-0.544-0.267-0.871-0.683-1.064-1.161
			c-0.642-1.582-0.57-3.15,0.268-4.673c0.286-0.519,0.711-0.957,1.408-1.146c0.671-0.182,1.209-0.051,1.656,0.399
			c0.505,0.51,0.749,1.118,0.872,1.751c0.097,0.506,0.102,1.027,0.15,1.562c-1.171,0-2.296,0-3.456,0
			c0.01,0.644,0.001,1.252,0.234,1.842c0.302,0.768,0.994,1.06,2.053,0.844c0.327-0.067,0.635-0.189,0.978-0.293
			c0.066,0.158,0.14,0.342,0.213,0.521C14.303,35.565,12.828,35.719,11.915,35.271z M15.994,26.422c-0.17,0-0.347,0-0.557,0
			c0-0.256,0-0.518,0-0.795c-0.749,0-1.465,0-2.213,0c0,0.262,0,0.524,0,0.799c-0.21,0-0.389,0-0.589,0c0-0.402,0-0.806,0-1.23
			c0.317,0.042,0.378-0.159,0.46-0.347c0.332-0.762,0.361-1.559,0.395-2.355c0.01-0.229,0.001-0.457,0.001-0.711
			c0.697,0,1.356,0,2.043,0c0,1.131,0,2.253,0,3.39c0.164,0.006,0.3,0.012,0.46,0.018C15.994,25.594,15.994,26,15.994,26.422z
			 M16.858,22.383c0.108-0.19,0.262-0.377,0.445-0.523c0.487-0.391,1.1-0.315,1.454,0.161c0.403,0.542,0.481,1.138,0.439,1.774
			c-0.645,0-1.277,0-1.935,0c-0.014,0.425-0.025,0.831,0.204,1.209c0.195,0.323,0.561,0.437,1.074,0.333
			c0.184-0.037,0.36-0.101,0.543-0.154c0.208,0.222,0.2,0.317-0.101,0.422c-0.27,0.094-0.557,0.175-0.844,0.205
			c-0.594,0.063-1.106-0.191-1.33-0.688c-0.153-0.338-0.252-0.703-0.297-1.062C16.438,23.482,16.553,22.914,16.858,22.383z
			 M20.851,35.38c-0.373,0-0.733,0-1.122,0c0-1.035,0-2.065,0-3.125c-0.53,0-1.032,0-1.534,0c-0.53,0-0.53-0.002-0.53,0.442
			c-0.001,0.804,0,1.608,0,2.412c0,0.085,0,0.171,0,0.271c-0.384,0-0.743,0-1.118,0c0-2.301,0-4.595,0-6.902
			c0.364,0,0.716,0,1.104,0c0,0.943,0,1.871,0,2.822c0.716,0,1.376,0,2.07,0c0-0.942,0-1.879,0-2.826
			c0.352,0,0.673-0.006,0.992,0.007c0.052,0.002,0.105,0.079,0.147,0.128c0.017,0.02,0.003,0.056,0.003,0.085
			c0,2.161,0,4.321,0.001,6.483C20.864,35.239,20.856,35.304,20.851,35.38z M22.16,25.601c-0.068-0.008-0.14-0.093-0.182-0.157
			c-0.322-0.476-0.637-0.955-0.956-1.434c-0.045-0.068-0.096-0.133-0.215-0.206c-0.04,0.152-0.11,0.304-0.116,0.456
			c-0.016,0.443-0.006,0.886-0.006,1.339c-0.221,0-0.41,0-0.62,0c0-1.263,0-2.529,0-3.815c0.206,0,0.394,0,0.611,0
			c0,0.545,0,1.079,0,1.68c0.096-0.093,0.146-0.134,0.186-0.181c0.352-0.419,0.717-0.831,1.046-1.263
			c0.15-0.196,0.317-0.285,0.59-0.248c0.068,0.009,0.138,0.001,0.259,0.001c-0.064,0.084-0.104,0.141-0.15,0.197
			c-0.375,0.45-0.744,0.903-1.13,1.346c-0.104,0.119-0.098,0.206-0.017,0.326c0.428,0.641,0.846,1.284,1.294,1.967
			C22.529,25.609,22.342,25.624,22.16,25.601z M26.916,34.028c-0.364,0.832-1.141,1.238-2.16,1.312
			c-0.68,0.051-1.369,0.01-2.082,0.01c0-2.338,0-4.598,0-6.872c0.316,0,0.624,0,0.964,0c0,0.824,0,1.654,0,2.473
			c0.479,0,0.931-0.028,1.375,0.006c1.127,0.091,1.833,0.656,2.02,1.585C27.133,33.047,27.129,33.549,26.916,34.028z M32.201,29.167
			c-1.028,0-2.059,0-3.112,0c0,2.085,0,4.142,0,6.212c-0.349,0-0.676,0-1.023,0c0-2.297,0-4.595,0-6.908c1.391,0,2.755,0,4.137,0
			C32.203,28.702,32.203,28.921,32.201,29.167z M35.959,35.38c0-1.509,0-3.018,0-4.537c-0.704,1.525-1.402,3.035-2.097,4.543
			c-0.38,0-0.727,0-1.098,0c0-2.303,0-4.6,0-6.912c0.371,0,0.731,0,1.119,0c0,1.428,0,2.844,0,4.259
			c0.018,0.003,0.034,0.006,0.053,0.009c0.195-0.417,0.394-0.832,0.587-1.249c0.44-0.952,0.883-1.901,1.319-2.854
			c0.061-0.137,0.142-0.188,0.322-0.181c0.346,0.015,0.694,0.005,1.055,0.005c0,2.317,0,4.611,0.001,6.917
			C36.804,35.38,36.397,35.38,35.959,35.38z M52.48,35.247c-0.24,0.197-0.535,0.264-0.855,0.264c-1.475,0.002-2.947,0-4.42,0
			c-1.482,0-2.964,0.002-4.445,0c-0.742-0.002-1.278-0.338-1.485-0.924c-0.027-0.08-0.036-0.169-0.036-0.254
			c-0.002-1.724,0.003-3.447-0.004-5.171c-0.003-0.608,0.342-1.034,0.961-1.33c2.102-1.001,4.204-2.002,6.305-3.005
			c0.344-0.164,0.694-0.277,1.09-0.135c0.344,0.125,0.492,0.366,0.494,0.655c0.006,1.825,0.024,3.65-0.01,5.473
			c-0.011,0.563-0.372,1.011-1.041,1.235c-1.484,0.498-2.971,0.986-4.456,1.479c-0.371,0.123-0.743,0.243-1.112,0.373
			c-0.117,0.042-0.235,0.101-0.326,0.174c-0.069,0.059-0.157,0.18-0.129,0.229c0.045,0.072,0.182,0.149,0.281,0.149
			c0.23,0.001,0.468-0.024,0.692-0.073c2.001-0.434,3.999-0.879,5.999-1.32c0.643-0.143,1.18-0.706,1.182-1.256
			c0.006-1.049,0.01-2.098-0.004-3.146c-0.002-0.215,0.069-0.304,0.338-0.276c0.139,0.015,0.278,0,0.418,0.002
			c0.459,0.006,0.773,0.231,0.84,0.606c0.019,0.104,0.021,0.216,0.021,0.322c0.002,1.681,0.002,3.36,0.001,5.042
			C52.779,34.677,52.793,34.995,52.48,35.247z"/>
	</g>
</g>
<g>
	<g>
		<path d="M47.579,27.765c-0.496,0.063-0.82,0.306-0.97,0.692c-0.163,0.417,0.099,0.748,0.569,0.75
			c0.562,0.001,1.133-0.528,1.062-0.985C48.193,27.927,47.907,27.724,47.579,27.765z"/>
	</g>
</g>
<g>
	<g>
		<path d="M14.072,22.263c-0.043,0.991,0.038,1.985-0.559,2.908c0.472,0,0.91,0,1.376,0c0-0.98,0-1.939,0-2.908
			C14.609,22.263,14.345,22.263,14.072,22.263z"/>
	</g>
</g>
<g>
	<g>
		<path d="M18.352,22.338c-0.193-0.283-0.554-0.292-0.771-0.021c-0.25,0.313-0.323,0.667-0.343,1.049c0.449,0,0.879,0,1.348,0
			C18.594,23,18.568,22.653,18.352,22.338z"/>
	</g>
</g>
<g>
</g>
<g>
</g>
<g>
</g>
<g>
</g>
<g>
</g>
<g>
</g>
<g>
</g>
<g>
</g>
<g>
</g>
<g>
</g>
<g>
</g>
<g>
</g>
<g>
</g>
<g>
</g>
<g>
</g>
</svg>
