<?xml version="1.0" encoding="iso-8859-1"?>
<!-- Generator: Adobe Illustrator 19.0.0, SVG Export Plug-In . SVG Version: 6.00 Build 0)  -->
<svg version="1.1" id="Layer_1" xmlns="http://www.w3.org/2000/svg" xmlns:xlink="http://www.w3.org/1999/xlink" x="0px" y="0px"
	 viewBox="0 0 512 512" style="enable-background:new 0 0 512 512;" xml:space="preserve">
<g>
	<g>
		<g>
			<path d="M463.292,156.177c-3.625-1.781-8.083-1.281-11.271,1.271l-194.5,155.073c-0.021,0.021-1.896,1.229-1.917,1.25
				c-13.771,8.365-32.354,7.625-44.458-0.115L17.188,163.917c-3.208-2.49-7.563-2.896-11.229-1.125
				C2.313,164.583,0,168.302,0,172.365v232.969C0,428.865,19.146,448,42.667,448h384c23.521,0,42.667-19.135,42.667-42.667V165.792
				C469.333,161.698,466.979,157.958,463.292,156.177z"/>
			<path d="M14.146,134.625L222.729,295.74c0.833,0.646,1.75,1.167,2.729,1.531c2.271,0.865,5.646,1.167,7.833,1.167
				c4.167,0,7.813-0.896,12.125-3.542l205.563-163.875c2.667-2.125,4.167-5.396,4.021-8.802c-0.167-3.406-1.917-6.542-4.771-8.427
				c-7-4.656-15.167-7.125-23.563-7.125h-384c-10.938,0-21.375,4.188-29.354,11.802c-2.25,2.146-3.458,5.167-3.292,8.271
				C10.167,129.844,11.688,132.729,14.146,134.625z"/>
			<path d="M469.333,64h-384c-15.647,0-28.966,8.73-36.38,21.333H448c23.521,0,42.667,19.135,42.667,42.667v271.046
				c12.6-7.413,21.333-20.727,21.333-36.379v-256C512,83.135,492.854,64,469.333,64z"/>
		</g>
	</g>
</g>
<g>
</g>
<g>
</g>
<g>
</g>
<g>
</g>
<g>
</g>
<g>
</g>
<g>
</g>
<g>
</g>
<g>
</g>
<g>
</g>
<g>
</g>
<g>
</g>
<g>
</g>
<g>
</g>
<g>
</g>
</svg>
