<svg xmlns="http://www.w3.org/2000/svg" width="52" height="52" viewBox="0 0 52 52">
    <g fill="none" fill-rule="evenodd">
        <path fill="#FFF" fill-opacity=".013" d="M0 0h52v52H0z"/>
        <path fill="#EDF3FC" fill-rule="nonzero" d="M47.473 8.11C47.514 8.11 26.781.204 26.25 0 25.842.162 4.986 8.11 5.027 8.11v14.925c0 10.341 2.98 23.846 21.223 28.875 18.203-5.03 21.183-18.777 21.183-28.875.04-5.11.04-14.924.04-14.924z"/>
        <path fill="#DEEAFC" fill-rule="nonzero" d="M5.027 23.035c0 10.341 2.98 23.846 21.223 28.875V0C25.475.284 5.027 8.11 5.027 8.11v14.925z"/>
        <path fill="#ABCBF5" fill-rule="nonzero" d="M43.351 10.91c.041 0-16.693-6.692-17.142-6.855-.367.122-17.182 6.57-17.141 6.53v12.531c0 8.679 1.714 20.52 17.141 24.738 15.387-4.217 17.142-16.262 17.142-24.738.041-4.299.041-12.207 0-12.207z"/>
        <path fill="#93BDF5" fill-rule="nonzero" d="M26.25 4.055c-.367.122-17.182 6.57-17.142 6.53v12.531c0 8.679 1.715 20.52 17.142 24.738V4.055z"/>
        <path fill="#EDF3FC" d="M20.21 21.845c0 .541.083.946.248 1.213.165.268.43.402.793.402.356 0 .62-.133.792-.397.172-.264.258-.67.258-1.218 0-1.07-.35-1.606-1.05-1.606-.364 0-.628.132-.793.397-.165.264-.248.667-.248 1.209zm4.489-.02c0 .574-.068 1.091-.203 1.55-.136.46-.345.846-.63 1.16a2.78 2.78 0 0 1-1.08.723c-.435.168-.954.253-1.555.253-.562 0-1.055-.085-1.481-.253a2.844 2.844 0 0 1-1.07-.723 3.052 3.052 0 0 1-.65-1.16 5.128 5.128 0 0 1-.218-1.55c0-.575.067-1.09.199-1.546.132-.456.338-.839.619-1.15a2.73 2.73 0 0 1 1.065-.713c.43-.165.941-.248 1.536-.248.568 0 1.068.083 1.501.248.433.165.794.403 1.085.714.29.31.51.693.659 1.149.149.456.223.971.223 1.546zm6.51-3.448L23.272 31h-2.269l7.937-12.623h2.269zm-1.259 9.145c0 .542.083.946.248 1.214.165.267.43.401.793.401.357 0 .62-.132.793-.396.171-.264.257-.67.257-1.219 0-1.07-.35-1.605-1.05-1.605-.363 0-.628.132-.793.396-.165.264-.248.667-.248 1.21zm4.489-.02c0 .575-.068 1.09-.203 1.546-.136.456-.345.84-.63 1.154a2.78 2.78 0 0 1-1.08.724c-.435.168-.954.252-1.555.252-.561 0-1.054-.084-1.476-.252a2.851 2.851 0 0 1-1.066-.724 3.056 3.056 0 0 1-.649-1.154 5.08 5.08 0 0 1-.218-1.546c0-.574.067-1.09.199-1.545.132-.456.337-.84.614-1.15.277-.31.63-.548 1.06-.713.43-.165.942-.248 1.536-.248.568 0 1.069.083 1.501.248.433.165.795.403 1.085.713.29.31.51.694.66 1.15.148.455.222.97.222 1.545z"/>
    </g>
</svg>
